<svg xmlns="http://www.w3.org/2000/svg" width="459.949" height="457.703" viewBox="0 0 459.949 457.703">
  <g id="_029-sunrise" data-name="029-sunrise" transform="translate(-25.613)">
    <path id="Path_1" data-name="Path 1" d="M397.684,229.977A142.1,142.1,0,1,1,255.59,87.883,142.1,142.1,0,0,1,397.684,229.977Zm0,0" fill="#fab03c"/>
    <path id="Path_2" data-name="Path 2" d="M397.68,229.973a142.092,142.092,0,1,1-265.168-71.039,142.135,142.135,0,0,0,246.152,0A141.391,141.391,0,0,1,397.68,229.973Zm0,0" fill="#fd8f3e"/>
    <g id="Group_1" data-name="Group 1">
      <path id="Path_3" data-name="Path 3" d="M255.59,46.059a7.726,7.726,0,0,1-7.727-7.727V7.727a7.725,7.725,0,1,1,15.449,0V38.332A7.725,7.725,0,0,1,255.59,46.059Zm0,0" fill="#f8e98e"/>
      <path id="Path_4" data-name="Path 4" d="M159.773,71.734a7.724,7.724,0,0,1-6.7-3.863l-15.3-26.508a7.724,7.724,0,1,1,13.379-7.723l15.3,26.5a7.727,7.727,0,0,1-6.684,11.59Zm0,0" fill="#f8e98e"/>
      <path id="Path_5" data-name="Path 5" d="M89.609,141.883a7.7,7.7,0,0,1-3.855-1.039l-26.5-15.3a7.727,7.727,0,1,1,7.727-13.383l26.5,15.3a7.727,7.727,0,0,1-3.871,14.418Zm0,0" fill="#f8e98e"/>
      <path id="Path_6" data-name="Path 6" d="M477.84,237.7H447.234a7.727,7.727,0,0,1,0-15.453H477.84a7.727,7.727,0,0,1,0,15.453Zm0,0" fill="#f8e98e"/>
      <path id="Path_7" data-name="Path 7" d="M63.941,237.7H33.34a7.727,7.727,0,0,1,0-15.453h30.6a7.727,7.727,0,0,1,0,15.453Zm0,0" fill="#f8e98e"/>
      <path id="Path_8" data-name="Path 8" d="M421.563,141.883a7.727,7.727,0,0,1-3.867-14.418l26.5-15.3a7.727,7.727,0,1,1,7.727,13.383l-26.5,15.3A7.7,7.7,0,0,1,421.563,141.883Zm0,0" fill="#f8e98e"/>
      <path id="Path_9" data-name="Path 9" d="M351.4,71.734a7.727,7.727,0,0,1-6.684-11.59l15.3-26.5A7.726,7.726,0,0,1,373.4,41.363L358.1,67.871A7.724,7.724,0,0,1,351.4,71.734Zm0,0" fill="#f8e98e"/>
    </g>
    <g id="Group_2" data-name="Group 2" transform="translate(511.176 457.703) rotate(180)">
      <path id="Path_3-2" data-name="Path 3" d="M255.59,46.059a7.726,7.726,0,0,1-7.727-7.727V7.727a7.725,7.725,0,1,1,15.449,0V38.332A7.725,7.725,0,0,1,255.59,46.059Zm0,0" fill="#f8e98e"/>
      <path id="Path_4-2" data-name="Path 4" d="M159.773,71.734a7.724,7.724,0,0,1-6.7-3.863l-15.3-26.508a7.724,7.724,0,1,1,13.379-7.723l15.3,26.5a7.727,7.727,0,0,1-6.684,11.59Zm0,0" fill="#f8e98e"/>
      <path id="Path_5-2" data-name="Path 5" d="M89.609,141.883a7.7,7.7,0,0,1-3.855-1.039l-26.5-15.3a7.727,7.727,0,1,1,7.727-13.383l26.5,15.3a7.727,7.727,0,0,1-3.871,14.418Zm0,0" fill="#f8e98e"/>
      <path id="Path_6-2" data-name="Path 6" d="M477.84,237.7H447.234a7.727,7.727,0,0,1,0-15.453H477.84a7.727,7.727,0,0,1,0,15.453Zm0,0" fill="#f8e98e"/>
      <path id="Path_7-2" data-name="Path 7" d="M63.941,237.7H33.34a7.727,7.727,0,0,1,0-15.453h30.6a7.727,7.727,0,0,1,0,15.453Zm0,0" fill="#f8e98e"/>
      <path id="Path_8-2" data-name="Path 8" d="M421.563,141.883a7.727,7.727,0,0,1-3.867-14.418l26.5-15.3a7.727,7.727,0,1,1,7.727,13.383l-26.5,15.3A7.7,7.7,0,0,1,421.563,141.883Zm0,0" fill="#f8e98e"/>
      <path id="Path_9-2" data-name="Path 9" d="M351.4,71.734a7.727,7.727,0,0,1-6.684-11.59l15.3-26.5A7.726,7.726,0,0,1,373.4,41.363L358.1,67.871A7.724,7.724,0,0,1,351.4,71.734Zm0,0" fill="#f8e98e"/>
    </g>
  </g>
</svg>
